<svg id="Camada_1" data-name="Camada 1" xmlns="http://www.w3.org/2000/svg" viewBox="0 0 267.55 267.55"><defs><style>.cls-1{fill:#fff;}.cls-2{fill:#952908;}.cls-3{fill:#792207;}.cls-4{fill:#abcd22;}.cls-5{fill:#accd23;}.cls-6{fill:#8bb875;}</style></defs><circle class="cls-1" cx="133.78" cy="133.78" r="133.78"/><path class="cls-2" d="M191.8,159.45c.2-1.37-.17-3.36,2.37-2.15Z" transform="translate(-53.72 -53.72)"/><path class="cls-3" d="M291.79,219.48a14.92,14.92,0,0,0-6.37-6.71c-4-2.2-8.67-2.78-13.22-2.67-4.07.1-8.17.72-12.2.1-13.86-2.13-11.47-17-3.5-24.51,7.23-6.84,21.86-15.21,17.55-27.42-3-8.44-13.27-13.11-21.23-15.49-16.83-5-37.47-4.27-54.75-2.39a193.06,193.06,0,0,0-61.62,17.86,8.73,8.73,0,0,0-3.22,2.17,3.11,3.11,0,0,0-.38,3.63,4.21,4.21,0,0,0,3.17,1.36c6.7.64,12.84-2.21,19.26-3.64,17.55-3.92,36.06-4.08,53,2.49,5.22,2,10.49,5.05,12.88,10.11,5.4,11.47-5.1,19.54-13.18,24.93-4.46,3-9,6.15-11.87,10.65-4,6.12-3.69,14.21,2.75,18.44,6.08,4,12.08,3.36,19,3.59,5.6.19,13.45.28,18.52,2.78a6.41,6.41,0,0,1,3.77,7,13.11,13.11,0,0,1-3.55,6.62,33.91,33.91,0,0,1-7.93,7c-1.4.79-9.1,4.18-8.53,6.27,1.62,6,31.44-6.44,35.71-8.06,11.92-4.54,24.51-10.24,33-20.05a14.46,14.46,0,0,0,3.92-10A11,11,0,0,0,291.79,219.48ZM249,192.16Z" transform="translate(-53.72 -53.72)"/><path class="cls-4" d="M236.18,241.34a68.58,68.58,0,0,1-45.35,14.12c-14.78-.68-27.9-6.07-39.64-15.4,1.9-1,2.81.32,3.91.91,18.73,10.05,37.75,10.21,56.66.9,4.55-2.24,8.84-3.53,13.8-3.25,3.53.2,7.08.06,10.62.07a1.63,1.63,0,0,1,.71,1.64A1.69,1.69,0,0,1,236.18,241.34Z" transform="translate(-53.72 -53.72)"/><path class="cls-5" d="M154.78,133.32c23.24-18.09,60.47-17,82.56,2.36a9.76,9.76,0,0,1,1.1,1.36c-6.58.2-13.15.35-19.72.37a27,27,0,0,1-7.43-2.66c-16.14-7.62-32.59-8.73-49.31-1.93a21.06,21.06,0,0,1-5.9,1.73C155.3,134.51,154.63,134.35,154.78,133.32Z" transform="translate(-53.72 -53.72)"/><path class="cls-6" d="M232,247.34c-30.41,16.57-70.61,13.44-92.09-16C123.69,209,120.59,177,133.82,152.59c8.66-16,24.51-27.07,41.93-31.63A72.54,72.54,0,0,1,202.56,119c10.43,1.23,19.59,6.08,29.48,9.26-1.64-1.27-3.69-2.89-5.28-4.17-37.39-30.34-97-11.7-115.15,31.09q-1.81,4.31-3.25,8.76l0,.13c-12.08,37.54,8.45,80.63,44.57,95.75C176.87,269.91,213.63,268.17,232,247.34Z" transform="translate(-53.72 -53.72)"/></svg>