<svg id="svg3583" xmlns="http://www.w3.org/2000/svg" xmlns:xlink="http://www.w3.org/1999/xlink" viewBox="0 0 88.4 123.8"><defs><style>.cls-1{fill:#386910;}.cls-1,.cls-2,.cls-3,.cls-4,.cls-5,.cls-6,.cls-7,.cls-8{fill-rule:evenodd;}.cls-2{fill:url(#Gradiente_sem_nome);}.cls-3{fill:url(#Gradiente_sem_nome_2);}.cls-4{fill:url(#Gradiente_sem_nome_3);}.cls-5{fill:url(#Gradiente_sem_nome_4);}.cls-6{fill:url(#Gradiente_sem_nome_5);}.cls-7{fill:url(#Gradiente_sem_nome_6);}.cls-8{fill:url(#Gradiente_sem_nome_7);}</style><linearGradient id="Gradiente_sem_nome" x1="50.95" y1="-105.76" x2="84.25" y2="-139.06" gradientTransform="matrix(1, 0, 0, -1, -43.51, -40.3)" gradientUnits="userSpaceOnUse"><stop offset="0" stop-color="#61b01c"/><stop offset="1" stop-color="#407513"/></linearGradient><linearGradient id="Gradiente_sem_nome_2" x1="57.02" y1="-88.85" x2="87.35" y2="-135.83" xlink:href="#Gradiente_sem_nome"/><linearGradient id="Gradiente_sem_nome_3" x1="63.15" y1="-79.42" x2="86.68" y2="-119.61" xlink:href="#Gradiente_sem_nome"/><linearGradient id="Gradiente_sem_nome_4" x1="70.75" y1="-71.34" x2="85.96" y2="-103.2" xlink:href="#Gradiente_sem_nome"/><linearGradient id="Gradiente_sem_nome_5" x1="80.11" y1="-62.9" x2="95.31" y2="-78.1" xlink:href="#Gradiente_sem_nome"/><radialGradient id="Gradiente_sem_nome_6" cx="35.83" cy="1183.24" r="19.98" gradientTransform="matrix(0, 1.67, 1.67, 0, -1930.66, 3.4)" gradientUnits="userSpaceOnUse"><stop offset="0" stop-color="#61b01c"/><stop offset="0.3" stop-color="#529817"/><stop offset="0.32" stop-color="#569e18"/><stop offset="0.47" stop-color="#4c8c16"/><stop offset="0.51" stop-color="#519616"/><stop offset="0.66" stop-color="#457f14"/><stop offset="0.69" stop-color="#4c8c15"/><stop offset="0.84" stop-color="#3c6e11"/><stop offset="0.86" stop-color="#4c8b16"/><stop offset="0.98" stop-color="#34600f"/><stop offset="1" stop-color="#386910"/></radialGradient><linearGradient id="Gradiente_sem_nome_7" x1="75.96" y1="-90.55" x2="99.5" y2="-67.01" gradientTransform="matrix(1, 0, 0, -1, -43.51, -40.3)" xlink:href="#Gradiente_sem_nome_6"/></defs><g id="g11738"><path id="path11720" class="cls-1" d="M44.2,11.8,69.3,36.9A35.5,35.5,0,0,1,26.5,92.8h0a35.49,35.49,0,0,1-13-48.5h0A34.11,34.11,0,0,1,19.2,37Z"/><path id="path10710" class="cls-2" d="M15.4,78.7A33.14,33.14,0,0,0,44.2,95.3L10.9,62A33.71,33.71,0,0,0,15.4,78.7Z"/><path id="path10704" class="cls-3" d="M44.2,95.3,10.9,62a32.53,32.53,0,0,1,3-13.7L44.2,78.6Z"/><path id="path10724" class="cls-4" d="M20.7,38.5,44.2,62h0V78.7L13.9,48.4l1.5-3A35.21,35.21,0,0,1,20.7,38.5Z"/><path id="path10726" class="cls-5" d="M20.7,38.5,44.2,62V45.4L29,30.2Z"/><path id="path10728" class="cls-6" d="M44.2,15,29,30.2,44.2,45.4Z"/><path id="path11553" class="cls-7" d="M44.2,46.4l23.5-6.9A35.21,35.21,0,0,1,73,46.4,33.34,33.34,0,0,1,60.8,91.9a34.79,34.79,0,0,1-16.7,4.5v-50Z"/><path id="path11565" class="cls-8" d="M44.2,62V15L67.7,38.5Z"/><path id="path11636" class="cls-1" d="M43.1,15l-.3,28.1-14.2-14-.6.6L42.8,44.8l-.2,14.4-22-21.3-.5.5L42.6,61.5l-.2,14-29-28.2-.5.5L42.4,78.1l-.2,13.6L9.6,60.2l-.6.5L42.2,94.9,42,112h4.4L45.3,15Z"/></g></svg>